HIERARCHY
ROOT Hips
{
 OFFSET 0.000000 0.000000 0.000000
 CHANNELS 6 Xposition Yposition Zposition Yrotation Xrotation Zrotation
 JOINT Chest
 {
  OFFSET 0.000000 9.585900 0.002600
  CHANNELS 3 Yrotation Xrotation Zrotation
  JOINT Chest2
  {
   OFFSET 0.000000 9.601200 -0.005300
   CHANNELS 3 Yrotation Xrotation Zrotation
   JOINT Chest3
   {
    OFFSET 0.000000 9.561800 0.000000
    CHANNELS 3 Yrotation Xrotation Zrotation
    JOINT Chest4
    {
     OFFSET 0.000000 9.552100 0.000000
     CHANNELS 3 Yrotation Xrotation Zrotation
     JOINT Neck
     {
      OFFSET 0.000000 14.453000 0.000000
      CHANNELS 3 Yrotation Xrotation Zrotation
      JOINT Head
      {
       OFFSET 0.000000 8.936500 -0.011300
       CHANNELS 3 Yrotation Xrotation Zrotation
       End Site
       {
        OFFSET 0.000000 17.073600 -0.006000
       }
      }
     }
     JOINT RightCollar
     {
      OFFSET -2.921100 9.558500 0.000000
      CHANNELS 3 Yrotation Xrotation Zrotation
      JOINT RightShoulder
      {
       OFFSET -13.519700 0.000000 0.000000
       CHANNELS 3 Yrotation Xrotation Zrotation
       JOINT RightElbow
       {
        OFFSET 0.000000 -29.696600 0.000000
        CHANNELS 3 Yrotation Xrotation Zrotation
        JOINT RightWrist
        {
         OFFSET 0.000000 -24.004700 0.000000
         CHANNELS 3 Yrotation Xrotation Zrotation
         End Site
         {
          OFFSET 0.000000 -17.728500 0.000000
         }
        }
       }
      }
     }
     JOINT LeftCollar
     {
      OFFSET 2.921100 9.558500 0.000000
      CHANNELS 3 Yrotation Xrotation Zrotation
      JOINT LeftShoulder
      {
       OFFSET 13.519700 0.000000 0.000000
       CHANNELS 3 Yrotation Xrotation Zrotation
       JOINT LeftElbow
       {
        OFFSET 0.000000 -29.696600 0.000000
        CHANNELS 3 Yrotation Xrotation Zrotation
        JOINT LeftWrist
        {
         OFFSET 0.000000 -24.004700 0.000000
         CHANNELS 3 Yrotation Xrotation Zrotation
         End Site
         {
          OFFSET 0.000000 -17.728500 0.000000
         }
        }
       }
      }
     }
    }
   }
  }
 }
 JOINT RightHip
 {
  OFFSET -7.771700 -0.012900 -0.001300
  CHANNELS 3 Yrotation Xrotation Zrotation
  JOINT RightKnee
  {
   OFFSET 0.000000 -40.869800 0.001200
   CHANNELS 3 Yrotation Xrotation Zrotation
   JOINT RightAnkle
   {
    OFFSET 0.000000 -39.717900 0.002100
    CHANNELS 3 Yrotation Xrotation Zrotation
    JOINT RightToe
    {
     OFFSET 0.000000 -4.965400 11.033500
     CHANNELS 3 Yrotation Xrotation Zrotation
     End Site
     {
      OFFSET 0.000000 -1.423100 5.872300
     }
    }
   }
  }
 }
 JOINT LeftHip
 {
  OFFSET 7.771700 -0.012900 -0.001300
  CHANNELS 3 Yrotation Xrotation Zrotation
  JOINT LeftKnee
  {
   OFFSET 0.000000 -40.869800 0.001200
   CHANNELS 3 Yrotation Xrotation Zrotation
   JOINT LeftAnkle
   {
    OFFSET 0.000000 -39.717900 0.002100
    CHANNELS 3 Yrotation Xrotation Zrotation
    JOINT LeftToe
    {
     OFFSET 0.000000 -4.965400 11.033500
     CHANNELS 3 Yrotation Xrotation Zrotation
     End Site
     {
      OFFSET 0.000000 -1.423100 5.872300
     }
    }
   }
  }
 }
}
MOTION
Frames: 16
Frame Time: 0.008333
-0.079950 52.506401 35.621131 170.881793 -37.217290 -1.000245 2.949325 20.842761 1.266116 0.368594 2.739690 0.308164 0.628617 4.435416 0.500256 2.746151 17.752178 2.386714 2.340477 14.614799 -1.557190 4.959052 -8.545905 -3.783938 -5.762289 -1.700456 -3.630353 0.074980 -0.454336 4.550890 -169.059542 -79.311851 -171.748478 0.784536 2.768684 -4.922512 -4.476195 1.162990 0.053332 9.025985 -0.019198 2.156308 128.670170 -70.205709 -151.523387 -3.579022 2.242555 -1.742760 -3.249357 -44.080035 2.162230 172.815715 86.993093 177.441468 1.108378 -11.101280 -2.725725 0.070798 -0.214018 0.010887 0.559937 -40.013688 5.396067 67.530036 83.270832 56.829382 -5.895672 -13.166372 9.926378 0.468085 1.857103 0.155059
-0.076543 52.497121 35.615608 170.870848 -37.193098 -0.991384 2.943674 20.846796 1.266549 0.374203 2.725079 0.303746 0.620458 4.446021 0.503657 2.747258 17.742411 2.378067 2.344168 14.600845 -1.557118 4.931621 -8.595732 -3.739754 -5.728196 -1.697288 -3.634492 0.061642 -0.577072 4.496488 -169.148782 -79.282374 -171.708719 0.693197 2.451257 -5.037138 -4.536118 1.178179 0.034318 8.926640 -0.045154 2.031907 129.700892 -70.313614 -152.314463 -3.388194 1.349786 -0.907478 -3.298319 -44.106333 2.174526 172.720284 86.975769 177.337400 1.135595 -11.113901 -2.756636 0.063767 -0.214472 0.011416 0.524886 -40.038353 5.385795 67.643440 83.257345 56.949530 -5.886590 -13.171218 9.898362 0.480886 1.859014 0.156944
-0.073624 52.485807 35.613164 170.884998 -37.150359 -0.999015 2.913324 20.841003 1.265766 0.384399 2.703081 0.299443 0.594849 4.494119 0.511969 2.762273 17.696526 2.360312 2.332112 14.588189 -1.539548 4.940412 -8.619993 -3.743588 -5.666881 -1.675322 -3.636919 0.011566 -0.696130 4.447252 -169.161555 -79.239450 -171.731207 0.599909 2.156561 -5.165778 -4.535671 1.167850 0.027330 8.763516 -0.051467 1.908155 130.913274 -70.423425 -153.257392 -3.257448 0.496520 -0.136910 -3.320516 -44.153481 2.169851 172.997340 86.958233 177.629231 1.161006 -11.126992 -2.777318 0.066115 -0.212860 0.012776 0.468298 -40.084350 5.371328 67.713583 83.255920 57.055916 -5.934266 -13.207692 9.825395 0.574035 1.901071 0.187614
-0.071335 52.475808 35.609421 170.878334 -37.122043 -0.989841 2.903741 20.834783 1.257577 0.363674 2.744588 0.303996 0.612963 4.456899 0.505158 2.751063 17.707955 2.357291 2.330287 14.560699 -1.527397 4.950168 -8.648757 -3.747840 -5.614800 -1.688771 -3.639233 -0.007212 -0.794196 4.403225 -169.167388 -79.194323 -171.767126 0.504829 1.891161 -5.305319 -4.562012 1.151606 0.008473 8.635019 -0.083042 1.796728 132.282351 -70.534744 -154.334994 -3.172787 -0.311274 0.580563 -3.337603 -44.186642 2.175156 173.032582 86.943307 177.661628 1.167642 -11.143712 -2.792781 0.067725 -0.207644 0.015152 0.433714 -40.112753 5.360848 67.808635 83.240364 57.151384 -5.927521 -13.213688 9.800560 0.578025 1.906878 0.195623
-0.070215 52.465496 35.606612 170.865845 -37.090902 -0.971717 2.904406 20.811189 1.243932 0.354883 2.762530 0.304199 0.605941 4.470695 0.504721 2.743107 17.712353 2.355108 2.329469 14.532983 -1.517018 4.913316 -8.732538 -3.680422 -5.567188 -1.712293 -3.642582 -0.000390 -0.894413 4.359893 -169.183993 -79.158668 -171.809484 0.408951 1.657187 -5.444249 -4.613828 1.152995 -0.016551 8.533156 -0.151291 1.694568 133.741638 -70.645281 -155.494510 -3.116213 -1.075624 1.250763 -3.345498 -44.225014 2.172739 172.970752 86.926544 177.596311 1.171902 -11.158875 -2.812400 0.066422 -0.203595 0.022521 0.413552 -40.143459 5.343189 67.904777 83.223528 57.242849 -5.918494 -13.217783 9.790953 0.566065 1.911761 0.204479
-0.069446 52.456870 35.602292 170.870810 -37.075849 -0.961416 2.878962 20.828716 1.224515 0.366102 2.739702 0.302885 0.584626 4.512107 0.505583 2.707574 17.752088 2.340717 2.324357 14.492496 -1.491417 4.956035 -8.796412 -3.702441 -5.500331 -1.793131 -3.642513 0.039080 -0.984362 4.318996 -169.266454 -79.126117 -171.805792 0.316535 1.451378 -5.570789 -4.614677 1.113071 -0.034083 8.416904 -0.236000 1.601145 135.200325 -70.750584 -156.662449 -3.073647 -1.807853 1.880540 -3.355312 -44.244611 2.160830 172.722245 86.908113 177.348041 1.164801 -11.173426 -2.828053 0.066031 -0.206540 0.026559 0.403098 -40.157413 5.323451 67.955501 83.214583 57.288624 -5.921642 -13.214052 9.799787 0.567557 1.909753 0.201585
-0.065509 52.449276 35.598119 170.869299 -37.069513 -0.967326 2.867492 20.853581 1.229805 0.363539 2.743621 0.301667 0.591101 4.497153 0.502427 2.689103 17.772690 2.334429 2.334786 14.466790 -1.487993 4.965409 -8.815293 -3.705419 -5.455053 -1.800489 -3.634816 0.075593 -1.100328 4.268056 -169.443165 -79.097214 -171.722472 0.236024 1.267066 -5.678259 -4.647982 1.126155 -0.052495 8.310833 -0.338304 1.522566 136.567708 -70.844184 -157.764614 -3.039485 -2.521703 2.487648 -3.364848 -44.253007 2.180569 172.743283 86.896120 177.369359 1.158183 -11.181758 -2.832861 0.067241 -0.209629 0.027980 0.382224 -40.164215 5.324532 67.974049 83.216188 57.321814 -5.925607 -13.218670 9.778800 0.584678 1.916274 0.217669
-0.062731 52.442656 35.593421 170.861724 -37.071499 -0.964040 2.844826 20.909442 1.222702 0.360175 2.754270 0.300404 0.612392 4.452679 0.499745 2.659874 17.823620 2.327123 2.356336 14.412340 -1.487922 4.949007 -8.847725 -3.671543 -5.397181 -1.830016 -3.616248 0.109728 -1.224041 4.205833 -169.744380 -79.072212 -171.520982 0.172323 1.102353 -5.763148 -4.660909 1.100386 -0.066920 8.204995 -0.442127 1.457910 137.787548 -70.920558 -158.750799 -3.006665 -3.219538 3.086351 -3.358117 -44.253268 2.188520 172.806104 86.885308 177.433895 1.158900 -11.193003 -2.843583 0.065355 -0.209648 0.035818 0.365501 -40.161339 5.310812 68.047147 83.203636 57.407339 -5.907114 -13.226564 9.754634 0.579003 1.919199 0.219787
-0.052405 52.440121 35.585737 170.814041 -37.111680 -0.980571 2.890924 20.972868 1.269738 0.364009 2.744556 0.299888 0.601806 4.477822 0.499276 2.643709 17.854857 2.319125 2.345440 14.393585 -1.470774 4.923642 -8.909814 -3.624203 -5.343713 -1.855349 -3.599798 0.135788 -1.352512 4.149314 -170.180066 -79.047446 -171.187216 0.127516 0.953299 -5.819546 -4.680264 1.072541 -0.081673 8.099212 -0.557181 1.411090 138.850538 -70.980342 -159.602777 -2.972252 -3.890921 3.681682 -3.359327 -44.205882 2.258821 172.900432 86.888275 177.535065 1.159676 -11.195165 -2.856661 0.063334 -0.212614 0.039561 0.338977 -40.120077 5.349957 68.116557 83.193592 57.511977 -5.879134 -13.224827 9.711200 0.582179 1.908534 0.215721
-0.054649 52.433966 35.581706 170.811040 -37.114597 -0.956082 2.875582 21.000487 1.242220 0.367111 2.737259 0.299761 0.593657 4.503302 0.498929 2.645611 17.842470 2.314349 2.343981 14.383340 -1.465411 4.900300 -8.923138 -3.600481 -5.317063 -1.834138 -3.583732 0.159681 -1.482007 4.093766 -170.691230 -79.021769 -170.778891 0.104639 0.807656 -5.846934 -4.718655 1.086056 -0.098111 7.983224 -0.681669 1.380848 139.776762 -71.028103 -160.328852 -2.937348 -4.526845 4.275458 -3.333109 -44.209632 2.231685 172.896053 86.874089 177.528148 1.154389 -11.207718 -2.858998 0.062983 -0.212426 0.042954 0.314265 -40.114334 5.310016 68.259757 83.160530 57.640874 -5.840778 -13.223468 9.710279 0.561458 1.903050 0.200117
-0.052828 52.427765 35.579705 170.807743 -37.114241 -0.960571 2.872189 21.019260 1.244525 0.367064 2.748208 0.301640 0.579841 4.541970 0.494116 2.657105 17.802212 2.310975 2.328735 14.393819 -1.455435 4.898751 -8.952781 -3.598492 -5.273757 -1.746627 -3.546241 0.155596 -1.671576 4.015944 -171.202108 -78.994861 -170.365304 0.098304 0.649736 -5.858943 -4.754450 1.097484 -0.114064 7.857222 -0.812155 1.363342 140.584979 -71.066128 -160.944807 -2.902186 -5.121443 4.860433 -3.326648 -44.212978 2.246292 173.027615 86.866534 177.662168 1.148510 -11.210221 -2.855640 0.062786 -0.214920 0.043839 0.304733 -40.114604 5.314370 68.283989 83.159041 57.670345 -5.847301 -13.224022 9.700411 0.554553 1.904911 0.211558
-0.051618 52.421464 35.578979 170.810257 -37.110346 -0.969944 2.869215 21.023630 1.250092 0.358818 2.762896 0.299976 0.585280 4.543813 0.490633 2.642719 17.820817 2.305866 2.303698 14.418111 -1.448613 4.937892 -9.016068 -3.615374 -5.239794 -1.728827 -3.518583 0.169064 -1.801099 3.955310 -171.686515 -78.966547 -169.967320 0.093773 0.461966 -5.868353 -4.776903 1.091703 -0.124625 7.727197 -0.944153 1.352739 141.275511 -71.095644 -161.456324 -2.875881 -5.665260 5.421287 -3.334577 -44.218360 2.265477 173.049084 86.863020 177.683491 1.142966 -11.214300 -2.863741 0.061422 -0.215928 0.048231 0.270759 -40.121790 5.313736 68.264705 83.160385 57.669287 -5.843462 -13.221870 9.666724 0.577903 1.909752 0.225275
-0.052661 52.416276 35.577648 170.810180 -37.114844 -0.968268 2.866913 21.036051 1.246411 0.353894 2.785938 0.289599 0.589981 4.531148 0.493923 2.632166 17.861079 2.290536 2.307858 14.393255 -1.434284 4.892933 -8.985516 -3.576119 -5.215675 -1.722696 -3.471288 0.180147 -1.925843 3.895217 -172.140060 -78.938365 -169.586110 0.079711 0.232393 -5.887804 -4.806516 1.068954 -0.117613 7.603535 -1.074042 1.346608 141.849104 -71.120644 -161.872735 -2.859501 -6.150848 5.943539 -3.323151 -44.217357 2.265493 172.994113 86.856365 177.630472 1.134248 -11.215541 -2.873135 0.058830 -0.219600 0.056605 0.248781 -40.116529 5.301732 68.301683 83.146987 57.705666 -5.824399 -13.221642 9.664936 0.575159 1.910109 0.218016
-0.053949 52.410916 35.577786 170.813351 -37.114610 -0.973474 2.863094 21.044429 1.242095 0.355565 2.782234 0.292220 0.589894 4.539589 0.489099 2.635661 17.853976 2.295906 2.301636 14.403372 -1.432486 4.856635 -8.930956 -3.547068 -5.211119 -1.662917 -3.438833 0.183605 -2.047531 3.833694 -172.555182 -78.912449 -169.223611 0.051499 -0.036902 -5.930341 -4.854196 1.094284 -0.129957 7.494322 -1.199832 1.346468 142.308125 -71.140111 -162.205686 -2.845995 -6.577977 6.424083 -3.324775 -44.220147 2.283226 173.001340 86.853581 177.627949 1.120403 -11.217972 -2.865583 0.059247 -0.220110 0.051927 0.223133 -40.118640 5.299533 68.334070 83.138053 57.736884 -5.811247 -13.216210 9.657364 0.576463 1.907113 0.220524
-0.056229 52.405756 35.578733 170.817308 -37.112966 -0.979386 2.861140 21.053166 1.228832 0.355490 2.775606 0.304328 0.592236 4.549811 0.484729 2.632349 17.858360 2.292500 2.301731 14.401549 -1.423178 4.827643 -8.874442 -3.523661 -5.206343 -1.608966 -3.392754 0.176026 -2.167190 3.770316 -172.915600 -78.887766 -168.897035 0.012552 -0.330664 -5.996860 -4.895422 1.107924 -0.132149 7.398549 -1.319372 1.348293 142.661182 -71.147929 -162.461632 -2.841649 -6.948307 6.871661 -3.324749 -44.223500 2.293048 173.103195 86.852406 177.727496 1.116730 -11.220295 -2.863970 0.058296 -0.218542 0.056239 0.198498 -40.122622 5.299098 68.357094 83.130367 57.757148 -5.802017 -13.208109 9.651676 0.572353 1.902759 0.228892
-0.058843 52.401785 35.579170 170.822182 -37.119466 -0.988682 2.863723 21.066849 1.228658 0.353754 2.775411 0.305693 0.592760 4.550398 0.487416 2.632487 17.904495 2.276197 2.293787 14.387881 -1.406435 4.804171 -8.835943 -3.500610 -5.209993 -1.581594 -3.332128 0.171583 -2.268891 3.721425 -173.300370 -78.843424 -168.542221 -0.026300 -0.631917 -6.083081 -4.938038 1.087888 -0.116817 7.311374 -1.433484 1.346167 142.951597 -71.147009 -162.671734 -2.851209 -7.259526 7.288310 -3.333017 -44.217021 2.311716 173.226381 86.851395 177.842005 1.109459 -11.221066 -2.857825 0.062964 -0.218874 0.054442 0.177766 -40.119556 5.300140 68.392109 83.123757 57.790888 -5.790808 -13.196320 9.647179 0.567971 1.892452 0.227695
